ffmpeg started on 2016-11-25 at 14:57:14
Report written to "Output/NVENCh264/results/ffmpeg/old_town_cross_2160p50bd1000k.log"
Command line:
Tools/ffmpeg/ffmpeg -benchmark -y -i Input/y4m/old_town_cross_2160p50.y4m -c:v h264_nvenc -preset bd -b:v 1000k -an Output/NVENCh264/encoded/old_town_cross_2160p50bd1000k.mkv
ffmpeg version N-82227-gdb23fde Copyright (c) 2000-2016 the FFmpeg developers
  built with gcc 5.4.0 (Ubuntu 5.4.0-6ubuntu1~16.04.2) 20160609
  configuration: --prefix=/home/jaroslav/ffmpeg_build --pkg-config-flags=--static --extra-cflags=-I/home/jaroslav/ffmpeg_build/include --extra-ldflags=-L/home/jaroslav/ffmpeg_build/lib --bindir=/home/jaroslav/bin --enable-gpl --enable-libass --enable-libfdk-aac --enable-libfreetype --enable-libmp3lame --enable-libopus --enable-libtheora --enable-libvorbis --enable-libvpx --enable-libx264 --enable-libx265 --enable-nvenc --enable-libmfx --enable-libxvid --enable-libgsm --enable-libopencore-amrnb --enable-version3 --enable-nonfree
  libavutil      55. 35.100 / 55. 35.100
  libavcodec     57. 66.101 / 57. 66.101
  libavformat    57. 57.100 / 57. 57.100
  libavdevice    57.  2.100 / 57.  2.100
  libavfilter     6. 66.100 /  6. 66.100
  libswscale      4.  3.100 /  4.  3.100
  libswresample   2.  4.100 /  2.  4.100
  libpostproc    54.  2.100 / 54.  2.100
Input #0, yuv4mpegpipe, from 'Input/y4m/old_town_cross_2160p50.y4m':
  Duration: 00:00:10.00, start: 0.000000, bitrate: 4976642 kb/s
    Stream #0:0: Video: rawvideo (I420 / 0x30323449), yuv420p(progressive), 3840x2160, SAR 1:1 DAR 16:9, 50 fps, 50 tbr, 50 tbn, 50 tbc
Output #0, matroska, to 'Output/NVENCh264/encoded/old_town_cross_2160p50bd1000k.mkv':
  Metadata:
    encoder         : Lavf57.57.100
    Stream #0:0: Video: h264 (h264_nvenc) (Main) (H264 / 0x34363248), yuv420p, 3840x2160 [SAR 1:1 DAR 16:9], q=-1--1, 1000 kb/s, 50 fps, 1k tbn, 50 tbc
    Metadata:
      encoder         : Lavc57.66.101 h264_nvenc
    Side data:
      cpb: bitrate max/min/avg: 0/0/1000000 buffer size: 2000000 vbv_delay: -1
Stream mapping:
  Stream #0:0 -> #0:0 (rawvideo (native) -> h264 (h264_nvenc))
Press [q] to stop, [?] for help
frame=   20 fps=0.0 q=0.0 size=       0kB time=00:00:00.00 bitrate=N/A speed=   0x    frame=   38 fps= 36 q=43.0 size=       1kB time=00:00:00.14 bitrate=  42.3kbits/s speed=0.135x    frame=   56 fps= 36 q=41.0 size=       1kB time=00:00:00.50 bitrate=  11.9kbits/s speed=0.323x    frame=   74 fps= 36 q=41.0 size=       1kB time=00:00:00.86 bitrate=   6.9kbits/s speed=0.415x    frame=   92 fps= 36 q=41.0 size=       1kB time=00:00:01.22 bitrate=   4.9kbits/s speed=0.472x    frame=  110 fps= 35 q=41.0 size=       1kB time=00:00:01.58 bitrate=   3.8kbits/s speed=0.509x    frame=  128 fps= 35 q=41.0 size=       1kB time=00:00:01.94 bitrate=   3.1kbits/s speed=0.536x    frame=  146 fps= 35 q=41.0 size=       1kB time=00:00:02.30 bitrate=   2.6kbits/s speed=0.557x    frame=  164 fps= 35 q=41.0 size=       1kB time=00:00:02.66 bitrate=   2.2kbits/s speed=0.572x    frame=  182 fps= 35 q=41.0 size=       1kB time=00:00:03.02 bitrate=   2.0kbits/s speed=0.586x    frame=  200 fps= 35 q=41.0 size=       1kB time=00:00:03.38 bitrate=   1.8kbits/s speed=0.597x    frame=  218 fps= 35 q=41.0 size=       1kB time=00:00:03.74 bitrate=   1.6kbits/s speed=0.606x    frame=  236 fps= 35 q=41.0 size=       1kB time=00:00:04.10 bitrate=   1.5kbits/s speed=0.613x    frame=  254 fps= 35 q=41.0 size=       1kB time=00:00:04.46 bitrate=   1.3kbits/s speed=0.619x    frame=  272 fps= 35 q=41.0 size=       1kB time=00:00:04.82 bitrate=   1.2kbits/s speed=0.625x    frame=  290 fps= 35 q=44.0 size=    1391kB time=00:00:05.18 bitrate=2200.1kbits/s speed=0.629x    frame=  308 fps= 35 q=42.0 size=    1391kB time=00:00:05.54 bitrate=2057.2kbits/s speed=0.634x    frame=  326 fps= 35 q=41.0 size=    1391kB time=00:00:05.90 bitrate=1931.7kbits/s speed=0.637x    frame=  344 fps= 35 q=41.0 size=    1391kB time=00:00:06.26 bitrate=1820.6kbits/s speed=0.641x    frame=  362 fps= 35 q=41.0 size=    1391kB time=00:00:06.62 bitrate=1721.6kbits/s speed=0.644x    frame=  380 fps= 35 q=41.0 size=    1391kB time=00:00:06.98 bitrate=1632.8kbits/s speed=0.646x    frame=  398 fps= 35 q=41.0 size=    1391kB time=00:00:07.34 bitrate=1552.8kbits/s speed=0.649x    frame=  416 fps= 35 q=41.0 size=    1391kB time=00:00:07.70 bitrate=1480.2kbits/s speed=0.651x    frame=  434 fps= 35 q=41.0 size=    1391kB time=00:00:08.06 bitrate=1414.1kbits/s speed=0.653x    frame=  452 fps= 35 q=41.0 size=    1391kB time=00:00:08.42 bitrate=1353.6kbits/s speed=0.655x    frame=  470 fps= 35 q=41.0 size=    1391kB time=00:00:08.78 bitrate=1298.1kbits/s speed=0.657x    frame=  488 fps= 35 q=41.0 size=    1391kB time=00:00:09.14 bitrate=1247.0kbits/s speed=0.659x    frame=  500 fps= 35 q=41.0 Lsize=    2923kB time=00:00:09.98 bitrate=2399.3kbits/s speed= 0.7x    
video:2919kB audio:0kB subtitle:0kB other streams:0kB global headers:0kB muxing overhead: 0.144960%
bench: utime=1.076s
bench: maxrss=1395448kB
